<?xml version="1.0" encoding="UTF-8" standalone="no"?>
<!DOCTYPE svg PUBLIC "-//W3C//DTD SVG 1.1//EN"
 "http://www.w3.org/Graphics/SVG/1.1/DTD/svg11.dtd">
<!-- Generated by graphviz version 7.1.0 (20230121.1956)
 -->
<!-- Pages: 1 -->
<svg width="566pt" height="421pt"
 viewBox="0.00 0.00 566.00 421.00" xmlns="http://www.w3.org/2000/svg" xmlns:xlink="http://www.w3.org/1999/xlink">
<g id="graph0" class="graph" transform="scale(1 1) rotate(0) translate(4 417)">
<polygon fill="white" stroke="none" points="-4,4 -4,-417 562,-417 562,4 -4,4"/>
<!-- tbl -->
<g id="node1" class="node">
<title>tbl</title>
<polygon fill="White" stroke="none" points="8,-375.5 8,-408.5 44,-408.5 44,-375.5 8,-375.5"/>
<polygon fill="none" stroke="blue" points="8,-375.5 8,-408.5 44,-408.5 44,-375.5 8,-375.5"/>
<polygon fill="none" stroke="White" points="14,-381.5 14,-402.5 38,-402.5 38,-381.5 14,-381.5"/>
<text text-anchor="start" x="17" y="-388.3" font-family="Times New Roman,serif" font-size="14.00" fill="lightblue">0,0</text>
<polygon fill="none" stroke="White" points="11,-378.5 11,-405.5 41,-405.5 41,-378.5 11,-378.5"/>
<polygon fill="White" stroke="none" points="44,-375.5 44,-408.5 80,-408.5 80,-375.5 44,-375.5"/>
<polygon fill="none" stroke="blue" points="44,-375.5 44,-408.5 80,-408.5 80,-375.5 44,-375.5"/>
<polygon fill="none" stroke="White" points="50,-381.5 50,-402.5 74,-402.5 74,-381.5 50,-381.5"/>
<text text-anchor="start" x="53" y="-388.3" font-family="Times New Roman,serif" font-size="14.00" fill="lightblue">0,1</text>
<polygon fill="none" stroke="White" points="47,-378.5 47,-405.5 77,-405.5 77,-378.5 47,-378.5"/>
<polygon fill="White" stroke="none" points="80,-375.5 80,-408.5 116,-408.5 116,-375.5 80,-375.5"/>
<polygon fill="none" stroke="blue" points="80,-375.5 80,-408.5 116,-408.5 116,-375.5 80,-375.5"/>
<polygon fill="none" stroke="White" points="86,-381.5 86,-402.5 110,-402.5 110,-381.5 86,-381.5"/>
<text text-anchor="start" x="92" y="-388.3" font-family="Times New Roman,serif" font-size="14.00">...</text>
<polygon fill="none" stroke="White" points="83,-378.5 83,-405.5 113,-405.5 113,-378.5 83,-378.5"/>
<polygon fill="White" stroke="none" points="116,-375.5 116,-408.5 152,-408.5 152,-375.5 116,-375.5"/>
<polygon fill="none" stroke="blue" points="116,-375.5 116,-408.5 152,-408.5 152,-375.5 116,-375.5"/>
<polygon fill="none" stroke="White" points="122,-381.5 122,-402.5 146,-402.5 146,-381.5 122,-381.5"/>
<text text-anchor="start" x="125" y="-388.3" font-family="Times New Roman,serif" font-size="14.00" fill="lightblue">0,3</text>
<polygon fill="none" stroke="White" points="119,-378.5 119,-405.5 149,-405.5 149,-378.5 119,-378.5"/>
<polygon fill="White" stroke="none" points="152,-375.5 152,-408.5 188,-408.5 188,-375.5 152,-375.5"/>
<polygon fill="none" stroke="blue" points="152,-375.5 152,-408.5 188,-408.5 188,-375.5 152,-375.5"/>
<polygon fill="none" stroke="White" points="158,-381.5 158,-402.5 182,-402.5 182,-381.5 158,-381.5"/>
<text text-anchor="start" x="161" y="-388.3" font-family="Times New Roman,serif" font-size="14.00" fill="lightblue">0,4</text>
<polygon fill="none" stroke="White" points="155,-378.5 155,-405.5 185,-405.5 185,-378.5 155,-378.5"/>
<polygon fill="White" stroke="none" points="188,-375.5 188,-408.5 224,-408.5 224,-375.5 188,-375.5"/>
<polygon fill="none" stroke="blue" points="188,-375.5 188,-408.5 224,-408.5 224,-375.5 188,-375.5"/>
<polygon fill="none" stroke="White" points="194,-381.5 194,-402.5 218,-402.5 218,-381.5 194,-381.5"/>
<text text-anchor="start" x="197" y="-388.3" font-family="Times New Roman,serif" font-size="14.00" fill="lightblue">0,5</text>
<polygon fill="none" stroke="White" points="191,-378.5 191,-405.5 221,-405.5 221,-378.5 191,-378.5"/>
<polygon fill="White" stroke="none" points="224,-375.5 224,-408.5 550,-408.5 550,-375.5 224,-375.5"/>
<polygon fill="none" stroke="blue" points="224,-375.5 224,-408.5 550,-408.5 550,-375.5 224,-375.5"/>
<polygon fill="none" stroke="White" points="230,-381.5 230,-402.5 544,-402.5 544,-381.5 230,-381.5"/>
<text text-anchor="start" x="381" y="-388.3" font-family="Times New Roman,serif" font-size="14.00">...</text>
<polygon fill="none" stroke="White" points="227,-378.5 227,-405.5 547,-405.5 547,-378.5 227,-378.5"/>
<polygon fill="Red" stroke="none" points="8,-342.5 8,-375.5 44,-375.5 44,-342.5 8,-342.5"/>
<polygon fill="none" stroke="blue" points="8,-342.5 8,-375.5 44,-375.5 44,-342.5 8,-342.5"/>
<polygon fill="none" stroke="Red" points="14,-348.5 14,-369.5 38,-369.5 38,-348.5 14,-348.5"/>
<text text-anchor="start" x="17" y="-355.3" font-family="Times New Roman,serif" font-size="14.00" fill="lightblue">1,0</text>
<polygon fill="none" stroke="Red" points="11,-345.5 11,-372.5 41,-372.5 41,-345.5 11,-345.5"/>
<polygon fill="White" stroke="none" points="44,-342.5 44,-375.5 80,-375.5 80,-342.5 44,-342.5"/>
<polygon fill="none" stroke="blue" points="44,-342.5 44,-375.5 80,-375.5 80,-342.5 44,-342.5"/>
<polygon fill="none" stroke="White" points="50,-348.5 50,-369.5 74,-369.5 74,-348.5 50,-348.5"/>
<text text-anchor="start" x="53" y="-355.3" font-family="Times New Roman,serif" font-size="14.00" fill="lightblue">1,1</text>
<polygon fill="none" stroke="White" points="47,-345.5 47,-372.5 77,-372.5 77,-345.5 47,-345.5"/>
<polygon fill="White" stroke="none" points="80,-342.5 80,-375.5 116,-375.5 116,-342.5 80,-342.5"/>
<polygon fill="none" stroke="blue" points="80,-342.5 80,-375.5 116,-375.5 116,-342.5 80,-342.5"/>
<polygon fill="none" stroke="White" points="86,-348.5 86,-369.5 110,-369.5 110,-348.5 86,-348.5"/>
<text text-anchor="start" x="89" y="-355.3" font-family="Times New Roman,serif" font-size="14.00" fill="lightblue">1,2</text>
<polygon fill="none" stroke="White" points="83,-345.5 83,-372.5 113,-372.5 113,-345.5 83,-345.5"/>
<polygon fill="White" stroke="none" points="116,-342.5 116,-375.5 152,-375.5 152,-342.5 116,-342.5"/>
<polygon fill="none" stroke="blue" points="116,-342.5 116,-375.5 152,-375.5 152,-342.5 116,-342.5"/>
<polygon fill="none" stroke="White" points="122,-348.5 122,-369.5 146,-369.5 146,-348.5 122,-348.5"/>
<text text-anchor="start" x="125" y="-355.3" font-family="Times New Roman,serif" font-size="14.00" fill="lightblue">1,3</text>
<polygon fill="none" stroke="White" points="119,-345.5 119,-372.5 149,-372.5 149,-345.5 119,-345.5"/>
<polygon fill="Red" stroke="none" points="152,-342.5 152,-375.5 188,-375.5 188,-342.5 152,-342.5"/>
<polygon fill="none" stroke="blue" points="152,-342.5 152,-375.5 188,-375.5 188,-342.5 152,-342.5"/>
<polygon fill="none" stroke="Red" points="158,-348.5 158,-369.5 182,-369.5 182,-348.5 158,-348.5"/>
<text text-anchor="start" x="161" y="-355.3" font-family="Times New Roman,serif" font-size="14.00" fill="lightblue">1,4</text>
<polygon fill="none" stroke="Red" points="155,-345.5 155,-372.5 185,-372.5 185,-345.5 155,-345.5"/>
<polygon fill="White" stroke="none" points="188,-342.5 188,-375.5 224,-375.5 224,-342.5 188,-342.5"/>
<polygon fill="none" stroke="blue" points="188,-342.5 188,-375.5 224,-375.5 224,-342.5 188,-342.5"/>
<polygon fill="none" stroke="White" points="194,-348.5 194,-369.5 218,-369.5 218,-348.5 194,-348.5"/>
<text text-anchor="start" x="197" y="-355.3" font-family="Times New Roman,serif" font-size="14.00" fill="lightblue">1,5</text>
<polygon fill="none" stroke="White" points="191,-345.5 191,-372.5 221,-372.5 221,-345.5 191,-345.5"/>
<polygon fill="White" stroke="none" points="224,-342.5 224,-375.5 260,-375.5 260,-342.5 224,-342.5"/>
<polygon fill="none" stroke="blue" points="224,-342.5 224,-375.5 260,-375.5 260,-342.5 224,-342.5"/>
<polygon fill="none" stroke="White" points="230,-348.5 230,-369.5 254,-369.5 254,-348.5 230,-348.5"/>
<text text-anchor="start" x="233" y="-355.3" font-family="Times New Roman,serif" font-size="14.00" fill="lightblue">1,6</text>
<polygon fill="none" stroke="White" points="227,-345.5 227,-372.5 257,-372.5 257,-345.5 227,-345.5"/>
<polygon fill="White" stroke="none" points="260,-342.5 260,-375.5 296,-375.5 296,-342.5 260,-342.5"/>
<polygon fill="none" stroke="blue" points="260,-342.5 260,-375.5 296,-375.5 296,-342.5 260,-342.5"/>
<polygon fill="none" stroke="White" points="266,-348.5 266,-369.5 290,-369.5 290,-348.5 266,-348.5"/>
<text text-anchor="start" x="269" y="-355.3" font-family="Times New Roman,serif" font-size="14.00" fill="lightblue">1,7</text>
<polygon fill="none" stroke="White" points="263,-345.5 263,-372.5 293,-372.5 293,-345.5 263,-345.5"/>
<polygon fill="White" stroke="none" points="296,-342.5 296,-375.5 550,-375.5 550,-342.5 296,-342.5"/>
<polygon fill="none" stroke="blue" points="296,-342.5 296,-375.5 550,-375.5 550,-342.5 296,-342.5"/>
<polygon fill="none" stroke="White" points="302,-348.5 302,-369.5 544,-369.5 544,-348.5 302,-348.5"/>
<text text-anchor="start" x="417" y="-355.3" font-family="Times New Roman,serif" font-size="14.00">...</text>
<polygon fill="none" stroke="White" points="299,-345.5 299,-372.5 547,-372.5 547,-345.5 299,-345.5"/>
<polygon fill="White" stroke="none" points="8,-309.5 8,-342.5 44,-342.5 44,-309.5 8,-309.5"/>
<polygon fill="none" stroke="blue" points="8,-309.5 8,-342.5 44,-342.5 44,-309.5 8,-309.5"/>
<polygon fill="none" stroke="White" points="14,-315.5 14,-336.5 38,-336.5 38,-315.5 14,-315.5"/>
<text text-anchor="start" x="17" y="-322.3" font-family="Times New Roman,serif" font-size="14.00" fill="lightblue">2,0</text>
<polygon fill="none" stroke="White" points="11,-312.5 11,-339.5 41,-339.5 41,-312.5 11,-312.5"/>
<polygon fill="White" stroke="none" points="44,-309.5 44,-342.5 80,-342.5 80,-309.5 44,-309.5"/>
<polygon fill="none" stroke="blue" points="44,-309.5 44,-342.5 80,-342.5 80,-309.5 44,-309.5"/>
<polygon fill="none" stroke="White" points="50,-315.5 50,-336.5 74,-336.5 74,-315.5 50,-315.5"/>
<text text-anchor="start" x="53" y="-322.3" font-family="Times New Roman,serif" font-size="14.00" fill="lightblue">2,1</text>
<polygon fill="none" stroke="White" points="47,-312.5 47,-339.5 77,-339.5 77,-312.5 47,-312.5"/>
<polygon fill="Black" stroke="none" points="80,-309.5 80,-342.5 116,-342.5 116,-309.5 80,-309.5"/>
<polygon fill="none" stroke="blue" points="80,-309.5 80,-342.5 116,-342.5 116,-309.5 80,-309.5"/>
<polygon fill="none" stroke="Black" points="86,-315.5 86,-336.5 110,-336.5 110,-315.5 86,-315.5"/>
<text text-anchor="start" x="89" y="-322.3" font-family="Times New Roman,serif" font-size="14.00" fill="lightblue">2,2</text>
<polygon fill="none" stroke="Black" points="83,-312.5 83,-339.5 113,-339.5 113,-312.5 83,-312.5"/>
<polygon fill="White" stroke="none" points="116,-309.5 116,-342.5 152,-342.5 152,-309.5 116,-309.5"/>
<polygon fill="none" stroke="blue" points="116,-309.5 116,-342.5 152,-342.5 152,-309.5 116,-309.5"/>
<polygon fill="none" stroke="White" points="122,-315.5 122,-336.5 146,-336.5 146,-315.5 122,-315.5"/>
<text text-anchor="start" x="125" y="-322.3" font-family="Times New Roman,serif" font-size="14.00" fill="lightblue">2,3</text>
<polygon fill="none" stroke="White" points="119,-312.5 119,-339.5 149,-339.5 149,-312.5 119,-312.5"/>
<polygon fill="White" stroke="none" points="152,-309.5 152,-342.5 188,-342.5 188,-309.5 152,-309.5"/>
<polygon fill="none" stroke="blue" points="152,-309.5 152,-342.5 188,-342.5 188,-309.5 152,-309.5"/>
<polygon fill="none" stroke="White" points="158,-315.5 158,-336.5 182,-336.5 182,-315.5 158,-315.5"/>
<text text-anchor="start" x="161" y="-322.3" font-family="Times New Roman,serif" font-size="14.00" fill="lightblue">2,4</text>
<polygon fill="none" stroke="White" points="155,-312.5 155,-339.5 185,-339.5 185,-312.5 155,-312.5"/>
<polygon fill="White" stroke="none" points="188,-309.5 188,-342.5 224,-342.5 224,-309.5 188,-309.5"/>
<polygon fill="none" stroke="blue" points="188,-309.5 188,-342.5 224,-342.5 224,-309.5 188,-309.5"/>
<polygon fill="none" stroke="White" points="194,-315.5 194,-336.5 218,-336.5 218,-315.5 194,-315.5"/>
<text text-anchor="start" x="197" y="-322.3" font-family="Times New Roman,serif" font-size="14.00" fill="lightblue">2,5</text>
<polygon fill="none" stroke="White" points="191,-312.5 191,-339.5 221,-339.5 221,-312.5 191,-312.5"/>
<polygon fill="Black" stroke="none" points="224,-309.5 224,-342.5 260,-342.5 260,-309.5 224,-309.5"/>
<polygon fill="none" stroke="blue" points="224,-309.5 224,-342.5 260,-342.5 260,-309.5 224,-309.5"/>
<polygon fill="none" stroke="Green" points="230,-315.5 230,-336.5 254,-336.5 254,-315.5 230,-315.5"/>
<text text-anchor="start" x="233" y="-322.3" font-family="Times New Roman,serif" font-size="14.00" fill="lightblue">2,6</text>
<polygon fill="none" stroke="Green" points="227,-312.5 227,-339.5 257,-339.5 257,-312.5 227,-312.5"/>
<polygon fill="White" stroke="none" points="260,-309.5 260,-342.5 296,-342.5 296,-309.5 260,-309.5"/>
<polygon fill="none" stroke="blue" points="260,-309.5 260,-342.5 296,-342.5 296,-309.5 260,-309.5"/>
<polygon fill="none" stroke="White" points="266,-315.5 266,-336.5 290,-336.5 290,-315.5 266,-315.5"/>
<text text-anchor="start" x="269" y="-322.3" font-family="Times New Roman,serif" font-size="14.00" fill="lightblue">2,7</text>
<polygon fill="none" stroke="White" points="263,-312.5 263,-339.5 293,-339.5 293,-312.5 263,-312.5"/>
<polygon fill="White" stroke="none" points="296,-309.5 296,-342.5 550,-342.5 550,-309.5 296,-309.5"/>
<polygon fill="none" stroke="blue" points="296,-309.5 296,-342.5 550,-342.5 550,-309.5 296,-309.5"/>
<polygon fill="none" stroke="White" points="302,-315.5 302,-336.5 544,-336.5 544,-315.5 302,-315.5"/>
<text text-anchor="start" x="417" y="-322.3" font-family="Times New Roman,serif" font-size="14.00">...</text>
<polygon fill="none" stroke="White" points="299,-312.5 299,-339.5 547,-339.5 547,-312.5 299,-312.5"/>
<polygon fill="White" stroke="none" points="8,-276.5 8,-309.5 44,-309.5 44,-276.5 8,-276.5"/>
<polygon fill="none" stroke="blue" points="8,-276.5 8,-309.5 44,-309.5 44,-276.5 8,-276.5"/>
<polygon fill="none" stroke="White" points="14,-282.5 14,-303.5 38,-303.5 38,-282.5 14,-282.5"/>
<text text-anchor="start" x="20" y="-289.3" font-family="Times New Roman,serif" font-size="14.00">...</text>
<polygon fill="none" stroke="White" points="11,-279.5 11,-306.5 41,-306.5 41,-279.5 11,-279.5"/>
<polygon fill="White" stroke="none" points="44,-276.5 44,-309.5 80,-309.5 80,-276.5 44,-276.5"/>
<polygon fill="none" stroke="blue" points="44,-276.5 44,-309.5 80,-309.5 80,-276.5 44,-276.5"/>
<polygon fill="none" stroke="White" points="50,-282.5 50,-303.5 74,-303.5 74,-282.5 50,-282.5"/>
<text text-anchor="start" x="53" y="-289.3" font-family="Times New Roman,serif" font-size="14.00" fill="lightblue">3,1</text>
<polygon fill="none" stroke="White" points="47,-279.5 47,-306.5 77,-306.5 77,-279.5 47,-279.5"/>
<polygon fill="White" stroke="none" points="80,-276.5 80,-309.5 116,-309.5 116,-276.5 80,-276.5"/>
<polygon fill="none" stroke="blue" points="80,-276.5 80,-309.5 116,-309.5 116,-276.5 80,-276.5"/>
<polygon fill="none" stroke="White" points="86,-282.5 86,-303.5 110,-303.5 110,-282.5 86,-282.5"/>
<text text-anchor="start" x="89" y="-289.3" font-family="Times New Roman,serif" font-size="14.00" fill="lightblue">3,2</text>
<polygon fill="none" stroke="White" points="83,-279.5 83,-306.5 113,-306.5 113,-279.5 83,-279.5"/>
<polygon fill="White" stroke="none" points="116,-276.5 116,-309.5 152,-309.5 152,-276.5 116,-276.5"/>
<polygon fill="none" stroke="blue" points="116,-276.5 116,-309.5 152,-309.5 152,-276.5 116,-276.5"/>
<polygon fill="none" stroke="White" points="122,-282.5 122,-303.5 146,-303.5 146,-282.5 122,-282.5"/>
<text text-anchor="start" x="125" y="-289.3" font-family="Times New Roman,serif" font-size="14.00" fill="lightblue">3,3</text>
<polygon fill="none" stroke="White" points="119,-279.5 119,-306.5 149,-306.5 149,-279.5 119,-279.5"/>
<polygon fill="White" stroke="none" points="152,-276.5 152,-309.5 188,-309.5 188,-276.5 152,-276.5"/>
<polygon fill="none" stroke="blue" points="152,-276.5 152,-309.5 188,-309.5 188,-276.5 152,-276.5"/>
<polygon fill="none" stroke="White" points="158,-282.5 158,-303.5 182,-303.5 182,-282.5 158,-282.5"/>
<text text-anchor="start" x="161" y="-289.3" font-family="Times New Roman,serif" font-size="14.00" fill="lightblue">3,4</text>
<polygon fill="none" stroke="White" points="155,-279.5 155,-306.5 185,-306.5 185,-279.5 155,-279.5"/>
<polygon fill="Red" stroke="none" points="188,-276.5 188,-309.5 224,-309.5 224,-276.5 188,-276.5"/>
<polygon fill="none" stroke="blue" points="188,-276.5 188,-309.5 224,-309.5 224,-276.5 188,-276.5"/>
<polygon fill="none" stroke="Red" points="194,-282.5 194,-303.5 218,-303.5 218,-282.5 194,-282.5"/>
<text text-anchor="start" x="197" y="-289.3" font-family="Times New Roman,serif" font-size="14.00" fill="lightblue">3,5</text>
<polygon fill="none" stroke="Red" points="191,-279.5 191,-306.5 221,-306.5 221,-279.5 191,-279.5"/>
<polygon fill="White" stroke="none" points="224,-276.5 224,-309.5 260,-309.5 260,-276.5 224,-276.5"/>
<polygon fill="none" stroke="blue" points="224,-276.5 224,-309.5 260,-309.5 260,-276.5 224,-276.5"/>
<polygon fill="none" stroke="White" points="230,-282.5 230,-303.5 254,-303.5 254,-282.5 230,-282.5"/>
<text text-anchor="start" x="233" y="-289.3" font-family="Times New Roman,serif" font-size="14.00" fill="lightblue">3,6</text>
<polygon fill="none" stroke="White" points="227,-279.5 227,-306.5 257,-306.5 257,-279.5 227,-279.5"/>
<polygon fill="White" stroke="none" points="260,-276.5 260,-309.5 296,-309.5 296,-276.5 260,-276.5"/>
<polygon fill="none" stroke="blue" points="260,-276.5 260,-309.5 296,-309.5 296,-276.5 260,-276.5"/>
<polygon fill="none" stroke="White" points="266,-282.5 266,-303.5 290,-303.5 290,-282.5 266,-282.5"/>
<text text-anchor="start" x="269" y="-289.3" font-family="Times New Roman,serif" font-size="14.00" fill="lightblue">3,7</text>
<polygon fill="none" stroke="White" points="263,-279.5 263,-306.5 293,-306.5 293,-279.5 263,-279.5"/>
<polygon fill="White" stroke="none" points="296,-276.5 296,-309.5 550,-309.5 550,-276.5 296,-276.5"/>
<polygon fill="none" stroke="blue" points="296,-276.5 296,-309.5 550,-309.5 550,-276.5 296,-276.5"/>
<polygon fill="none" stroke="White" points="302,-282.5 302,-303.5 544,-303.5 544,-282.5 302,-282.5"/>
<text text-anchor="start" x="417" y="-289.3" font-family="Times New Roman,serif" font-size="14.00">...</text>
<polygon fill="none" stroke="White" points="299,-279.5 299,-306.5 547,-306.5 547,-279.5 299,-279.5"/>
<polygon fill="White" stroke="none" points="8,-243.5 8,-276.5 44,-276.5 44,-243.5 8,-243.5"/>
<polygon fill="none" stroke="blue" points="8,-243.5 8,-276.5 44,-276.5 44,-243.5 8,-243.5"/>
<polygon fill="none" stroke="White" points="14,-249.5 14,-270.5 38,-270.5 38,-249.5 14,-249.5"/>
<text text-anchor="start" x="17" y="-256.3" font-family="Times New Roman,serif" font-size="14.00" fill="lightblue">4,0</text>
<polygon fill="none" stroke="White" points="11,-246.5 11,-273.5 41,-273.5 41,-246.5 11,-246.5"/>
<polygon fill="White" stroke="none" points="44,-243.5 44,-276.5 80,-276.5 80,-243.5 44,-243.5"/>
<polygon fill="none" stroke="blue" points="44,-243.5 44,-276.5 80,-276.5 80,-243.5 44,-243.5"/>
<polygon fill="none" stroke="White" points="50,-249.5 50,-270.5 74,-270.5 74,-249.5 50,-249.5"/>
<text text-anchor="start" x="53" y="-256.3" font-family="Times New Roman,serif" font-size="14.00" fill="lightblue">4,1</text>
<polygon fill="none" stroke="White" points="47,-246.5 47,-273.5 77,-273.5 77,-246.5 47,-246.5"/>
<polygon fill="White" stroke="none" points="80,-243.5 80,-276.5 116,-276.5 116,-243.5 80,-243.5"/>
<polygon fill="none" stroke="blue" points="80,-243.5 80,-276.5 116,-276.5 116,-243.5 80,-243.5"/>
<polygon fill="none" stroke="White" points="86,-249.5 86,-270.5 110,-270.5 110,-249.5 86,-249.5"/>
<text text-anchor="start" x="89" y="-256.3" font-family="Times New Roman,serif" font-size="14.00" fill="lightblue">4,2</text>
<polygon fill="none" stroke="White" points="83,-246.5 83,-273.5 113,-273.5 113,-246.5 83,-246.5"/>
<polygon fill="Red" stroke="none" points="116,-243.5 116,-276.5 152,-276.5 152,-243.5 116,-243.5"/>
<polygon fill="none" stroke="blue" points="116,-243.5 116,-276.5 152,-276.5 152,-243.5 116,-243.5"/>
<polygon fill="none" stroke="Red" points="122,-249.5 122,-270.5 146,-270.5 146,-249.5 122,-249.5"/>
<text text-anchor="start" x="125" y="-256.3" font-family="Times New Roman,serif" font-size="14.00" fill="lightblue">4,3</text>
<polygon fill="none" stroke="Red" points="119,-246.5 119,-273.5 149,-273.5 149,-246.5 119,-246.5"/>
<polygon fill="Red" stroke="none" points="152,-243.5 152,-276.5 188,-276.5 188,-243.5 152,-243.5"/>
<polygon fill="none" stroke="blue" points="152,-243.5 152,-276.5 188,-276.5 188,-243.5 152,-243.5"/>
<polygon fill="none" stroke="Red" points="158,-249.5 158,-270.5 182,-270.5 182,-249.5 158,-249.5"/>
<text text-anchor="start" x="161" y="-256.3" font-family="Times New Roman,serif" font-size="14.00" fill="lightblue">4,4</text>
<polygon fill="none" stroke="Red" points="155,-246.5 155,-273.5 185,-273.5 185,-246.5 155,-246.5"/>
<polygon fill="White" stroke="none" points="188,-243.5 188,-276.5 224,-276.5 224,-243.5 188,-243.5"/>
<polygon fill="none" stroke="blue" points="188,-243.5 188,-276.5 224,-276.5 224,-243.5 188,-243.5"/>
<polygon fill="none" stroke="White" points="194,-249.5 194,-270.5 218,-270.5 218,-249.5 194,-249.5"/>
<text text-anchor="start" x="197" y="-256.3" font-family="Times New Roman,serif" font-size="14.00" fill="lightblue">4,5</text>
<polygon fill="none" stroke="White" points="191,-246.5 191,-273.5 221,-273.5 221,-246.5 191,-246.5"/>
<polygon fill="White" stroke="none" points="224,-243.5 224,-276.5 260,-276.5 260,-243.5 224,-243.5"/>
<polygon fill="none" stroke="blue" points="224,-243.5 224,-276.5 260,-276.5 260,-243.5 224,-243.5"/>
<polygon fill="none" stroke="White" points="230,-249.5 230,-270.5 254,-270.5 254,-249.5 230,-249.5"/>
<text text-anchor="start" x="233" y="-256.3" font-family="Times New Roman,serif" font-size="14.00" fill="lightblue">4,6</text>
<polygon fill="none" stroke="White" points="227,-246.5 227,-273.5 257,-273.5 257,-246.5 227,-246.5"/>
<polygon fill="White" stroke="none" points="260,-243.5 260,-276.5 550,-276.5 550,-243.5 260,-243.5"/>
<polygon fill="none" stroke="blue" points="260,-243.5 260,-276.5 550,-276.5 550,-243.5 260,-243.5"/>
<polygon fill="none" stroke="White" points="266,-249.5 266,-270.5 544,-270.5 544,-249.5 266,-249.5"/>
<text text-anchor="start" x="399" y="-256.3" font-family="Times New Roman,serif" font-size="14.00">...</text>
<polygon fill="none" stroke="White" points="263,-246.5 263,-273.5 547,-273.5 547,-246.5 263,-246.5"/>
<polygon fill="White" stroke="none" points="8,-210.5 8,-243.5 44,-243.5 44,-210.5 8,-210.5"/>
<polygon fill="none" stroke="blue" points="8,-210.5 8,-243.5 44,-243.5 44,-210.5 8,-210.5"/>
<polygon fill="none" stroke="White" points="14,-216.5 14,-237.5 38,-237.5 38,-216.5 14,-216.5"/>
<text text-anchor="start" x="17" y="-223.3" font-family="Times New Roman,serif" font-size="14.00" fill="lightblue">5,0</text>
<polygon fill="none" stroke="White" points="11,-213.5 11,-240.5 41,-240.5 41,-213.5 11,-213.5"/>
<polygon fill="Black" stroke="none" points="44,-210.5 44,-243.5 80,-243.5 80,-210.5 44,-210.5"/>
<polygon fill="none" stroke="blue" points="44,-210.5 44,-243.5 80,-243.5 80,-210.5 44,-210.5"/>
<polygon fill="none" stroke="Black" points="50,-216.5 50,-237.5 74,-237.5 74,-216.5 50,-216.5"/>
<text text-anchor="start" x="53" y="-223.3" font-family="Times New Roman,serif" font-size="14.00" fill="lightblue">5,1</text>
<polygon fill="none" stroke="Black" points="47,-213.5 47,-240.5 77,-240.5 77,-213.5 47,-213.5"/>
<polygon fill="White" stroke="none" points="80,-210.5 80,-243.5 116,-243.5 116,-210.5 80,-210.5"/>
<polygon fill="none" stroke="blue" points="80,-210.5 80,-243.5 116,-243.5 116,-210.5 80,-210.5"/>
<polygon fill="none" stroke="White" points="86,-216.5 86,-237.5 110,-237.5 110,-216.5 86,-216.5"/>
<text text-anchor="start" x="89" y="-223.3" font-family="Times New Roman,serif" font-size="14.00" fill="lightblue">5,2</text>
<polygon fill="none" stroke="White" points="83,-213.5 83,-240.5 113,-240.5 113,-213.5 83,-213.5"/>
<polygon fill="Black" stroke="none" points="116,-210.5 116,-243.5 152,-243.5 152,-210.5 116,-210.5"/>
<polygon fill="none" stroke="blue" points="116,-210.5 116,-243.5 152,-243.5 152,-210.5 116,-210.5"/>
<polygon fill="none" stroke="Green" points="122,-216.5 122,-237.5 146,-237.5 146,-216.5 122,-216.5"/>
<text text-anchor="start" x="125" y="-223.3" font-family="Times New Roman,serif" font-size="14.00" fill="lightblue">5,3</text>
<polygon fill="none" stroke="Green" points="119,-213.5 119,-240.5 149,-240.5 149,-213.5 119,-213.5"/>
<polygon fill="White" stroke="none" points="152,-210.5 152,-243.5 188,-243.5 188,-210.5 152,-210.5"/>
<polygon fill="none" stroke="blue" points="152,-210.5 152,-243.5 188,-243.5 188,-210.5 152,-210.5"/>
<polygon fill="none" stroke="White" points="158,-216.5 158,-237.5 182,-237.5 182,-216.5 158,-216.5"/>
<text text-anchor="start" x="161" y="-223.3" font-family="Times New Roman,serif" font-size="14.00" fill="lightblue">5,4</text>
<polygon fill="none" stroke="White" points="155,-213.5 155,-240.5 185,-240.5 185,-213.5 155,-213.5"/>
<polygon fill="White" stroke="none" points="188,-210.5 188,-243.5 224,-243.5 224,-210.5 188,-210.5"/>
<polygon fill="none" stroke="blue" points="188,-210.5 188,-243.5 224,-243.5 224,-210.5 188,-210.5"/>
<polygon fill="none" stroke="White" points="194,-216.5 194,-237.5 218,-237.5 218,-216.5 194,-216.5"/>
<text text-anchor="start" x="197" y="-223.3" font-family="Times New Roman,serif" font-size="14.00" fill="lightblue">5,5</text>
<polygon fill="none" stroke="White" points="191,-213.5 191,-240.5 221,-240.5 221,-213.5 191,-213.5"/>
<polygon fill="White" stroke="none" points="224,-210.5 224,-243.5 550,-243.5 550,-210.5 224,-210.5"/>
<polygon fill="none" stroke="blue" points="224,-210.5 224,-243.5 550,-243.5 550,-210.5 224,-210.5"/>
<polygon fill="none" stroke="White" points="230,-216.5 230,-237.5 544,-237.5 544,-216.5 230,-216.5"/>
<text text-anchor="start" x="381" y="-223.3" font-family="Times New Roman,serif" font-size="14.00">...</text>
<polygon fill="none" stroke="White" points="227,-213.5 227,-240.5 547,-240.5 547,-213.5 227,-213.5"/>
<polygon fill="White" stroke="none" points="8,-177.5 8,-210.5 44,-210.5 44,-177.5 8,-177.5"/>
<polygon fill="none" stroke="blue" points="8,-177.5 8,-210.5 44,-210.5 44,-177.5 8,-177.5"/>
<polygon fill="none" stroke="White" points="14,-183.5 14,-204.5 38,-204.5 38,-183.5 14,-183.5"/>
<text text-anchor="start" x="17" y="-190.3" font-family="Times New Roman,serif" font-size="14.00" fill="lightblue">6,0</text>
<polygon fill="none" stroke="White" points="11,-180.5 11,-207.5 41,-207.5 41,-180.5 11,-180.5"/>
<polygon fill="White" stroke="none" points="44,-177.5 44,-210.5 80,-210.5 80,-177.5 44,-177.5"/>
<polygon fill="none" stroke="blue" points="44,-177.5 44,-210.5 80,-210.5 80,-177.5 44,-177.5"/>
<polygon fill="none" stroke="White" points="50,-183.5 50,-204.5 74,-204.5 74,-183.5 50,-183.5"/>
<text text-anchor="start" x="53" y="-190.3" font-family="Times New Roman,serif" font-size="14.00" fill="lightblue">6,1</text>
<polygon fill="none" stroke="White" points="47,-180.5 47,-207.5 77,-207.5 77,-180.5 47,-180.5"/>
<polygon fill="White" stroke="none" points="80,-177.5 80,-210.5 116,-210.5 116,-177.5 80,-177.5"/>
<polygon fill="none" stroke="blue" points="80,-177.5 80,-210.5 116,-210.5 116,-177.5 80,-177.5"/>
<polygon fill="none" stroke="White" points="86,-183.5 86,-204.5 110,-204.5 110,-183.5 86,-183.5"/>
<text text-anchor="start" x="89" y="-190.3" font-family="Times New Roman,serif" font-size="14.00" fill="lightblue">6,2</text>
<polygon fill="none" stroke="White" points="83,-180.5 83,-207.5 113,-207.5 113,-180.5 83,-180.5"/>
<polygon fill="White" stroke="none" points="116,-177.5 116,-210.5 152,-210.5 152,-177.5 116,-177.5"/>
<polygon fill="none" stroke="blue" points="116,-177.5 116,-210.5 152,-210.5 152,-177.5 116,-177.5"/>
<polygon fill="none" stroke="White" points="122,-183.5 122,-204.5 146,-204.5 146,-183.5 122,-183.5"/>
<text text-anchor="start" x="125" y="-190.3" font-family="Times New Roman,serif" font-size="14.00" fill="lightblue">6,3</text>
<polygon fill="none" stroke="White" points="119,-180.5 119,-207.5 149,-207.5 149,-180.5 119,-180.5"/>
<polygon fill="White" stroke="none" points="152,-177.5 152,-210.5 188,-210.5 188,-177.5 152,-177.5"/>
<polygon fill="none" stroke="blue" points="152,-177.5 152,-210.5 188,-210.5 188,-177.5 152,-177.5"/>
<polygon fill="none" stroke="White" points="158,-183.5 158,-204.5 182,-204.5 182,-183.5 158,-183.5"/>
<text text-anchor="start" x="161" y="-190.3" font-family="Times New Roman,serif" font-size="14.00" fill="lightblue">6,4</text>
<polygon fill="none" stroke="White" points="155,-180.5 155,-207.5 185,-207.5 185,-180.5 155,-180.5"/>
<polygon fill="White" stroke="none" points="188,-177.5 188,-210.5 550,-210.5 550,-177.5 188,-177.5"/>
<polygon fill="none" stroke="blue" points="188,-177.5 188,-210.5 550,-210.5 550,-177.5 188,-177.5"/>
<polygon fill="none" stroke="White" points="194,-183.5 194,-204.5 544,-204.5 544,-183.5 194,-183.5"/>
<text text-anchor="start" x="363" y="-190.3" font-family="Times New Roman,serif" font-size="14.00">...</text>
<polygon fill="none" stroke="White" points="191,-180.5 191,-207.5 547,-207.5 547,-180.5 191,-180.5"/>
<polygon fill="none" stroke="blue" points="8,-156.5 8,-177.5 550,-177.5 550,-156.5 8,-156.5"/>
<text text-anchor="start" x="273" y="-163.3" font-family="Times New Roman,serif" font-size="14.00">...</text>
<polygon fill="White" stroke="none" points="8,-123.5 8,-156.5 296,-156.5 296,-123.5 8,-123.5"/>
<polygon fill="none" stroke="blue" points="8,-123.5 8,-156.5 296,-156.5 296,-123.5 8,-123.5"/>
<polygon fill="none" stroke="White" points="14,-129.5 14,-150.5 290,-150.5 290,-129.5 14,-129.5"/>
<text text-anchor="start" x="146" y="-136.3" font-family="Times New Roman,serif" font-size="14.00">...</text>
<polygon fill="none" stroke="White" points="11,-126.5 11,-153.5 293,-153.5 293,-126.5 11,-126.5"/>
<polygon fill="White" stroke="none" points="296,-123.5 296,-156.5 345,-156.5 345,-123.5 296,-123.5"/>
<polygon fill="none" stroke="blue" points="296,-123.5 296,-156.5 345,-156.5 345,-123.5 296,-123.5"/>
<polygon fill="none" stroke="White" points="302,-129.5 302,-150.5 339,-150.5 339,-129.5 302,-129.5"/>
<text text-anchor="start" x="305" y="-136.3" font-family="Times New Roman,serif" font-size="14.00" fill="lightblue">97,97</text>
<polygon fill="none" stroke="White" points="299,-126.5 299,-153.5 342,-153.5 342,-126.5 299,-126.5"/>
<polygon fill="White" stroke="none" points="345,-123.5 345,-156.5 401,-156.5 401,-123.5 345,-123.5"/>
<polygon fill="none" stroke="blue" points="345,-123.5 345,-156.5 401,-156.5 401,-123.5 345,-123.5"/>
<polygon fill="none" stroke="White" points="351,-129.5 351,-150.5 395,-150.5 395,-129.5 351,-129.5"/>
<text text-anchor="start" x="357.5" y="-136.3" font-family="Times New Roman,serif" font-size="14.00" fill="lightblue">97,98</text>
<polygon fill="none" stroke="White" points="348,-126.5 348,-153.5 398,-153.5 398,-126.5 348,-126.5"/>
<polygon fill="White" stroke="none" points="401,-123.5 401,-156.5 457,-156.5 457,-123.5 401,-123.5"/>
<polygon fill="none" stroke="blue" points="401,-123.5 401,-156.5 457,-156.5 457,-123.5 401,-123.5"/>
<polygon fill="none" stroke="White" points="407,-129.5 407,-150.5 451,-150.5 451,-129.5 407,-129.5"/>
<text text-anchor="start" x="413.5" y="-136.3" font-family="Times New Roman,serif" font-size="14.00" fill="lightblue">97,99</text>
<polygon fill="none" stroke="White" points="404,-126.5 404,-153.5 454,-153.5 454,-126.5 404,-126.5"/>
<polygon fill="White" stroke="none" points="457,-123.5 457,-156.5 550,-156.5 550,-123.5 457,-123.5"/>
<polygon fill="none" stroke="blue" points="457,-123.5 457,-156.5 550,-156.5 550,-123.5 457,-123.5"/>
<polygon fill="none" stroke="White" points="463,-129.5 463,-150.5 544,-150.5 544,-129.5 463,-129.5"/>
<text text-anchor="start" x="497.5" y="-136.3" font-family="Times New Roman,serif" font-size="14.00">...</text>
<polygon fill="none" stroke="White" points="460,-126.5 460,-153.5 547,-153.5 547,-126.5 460,-126.5"/>
<polygon fill="White" stroke="none" points="8,-90.5 8,-123.5 296,-123.5 296,-90.5 8,-90.5"/>
<polygon fill="none" stroke="blue" points="8,-90.5 8,-123.5 296,-123.5 296,-90.5 8,-90.5"/>
<polygon fill="none" stroke="White" points="14,-96.5 14,-117.5 290,-117.5 290,-96.5 14,-96.5"/>
<text text-anchor="start" x="146" y="-103.3" font-family="Times New Roman,serif" font-size="14.00">...</text>
<polygon fill="none" stroke="White" points="11,-93.5 11,-120.5 293,-120.5 293,-93.5 11,-93.5"/>
<polygon fill="White" stroke="none" points="296,-90.5 296,-123.5 345,-123.5 345,-90.5 296,-90.5"/>
<polygon fill="none" stroke="blue" points="296,-90.5 296,-123.5 345,-123.5 345,-90.5 296,-90.5"/>
<polygon fill="none" stroke="White" points="302,-96.5 302,-117.5 339,-117.5 339,-96.5 302,-96.5"/>
<text text-anchor="start" x="305" y="-103.3" font-family="Times New Roman,serif" font-size="14.00" fill="lightblue">98,97</text>
<polygon fill="none" stroke="White" points="299,-93.5 299,-120.5 342,-120.5 342,-93.5 299,-93.5"/>
<polygon fill="Black" stroke="none" points="345,-90.5 345,-123.5 401,-123.5 401,-90.5 345,-90.5"/>
<polygon fill="none" stroke="blue" points="345,-90.5 345,-123.5 401,-123.5 401,-90.5 345,-90.5"/>
<polygon fill="none" stroke="Green" points="351,-96.5 351,-117.5 395,-117.5 395,-96.5 351,-96.5"/>
<text text-anchor="start" x="357.5" y="-103.3" font-family="Times New Roman,serif" font-size="14.00" fill="lightblue">98,98</text>
<polygon fill="none" stroke="Green" points="348,-93.5 348,-120.5 398,-120.5 398,-93.5 348,-93.5"/>
<polygon fill="White" stroke="none" points="401,-90.5 401,-123.5 457,-123.5 457,-90.5 401,-90.5"/>
<polygon fill="none" stroke="blue" points="401,-90.5 401,-123.5 457,-123.5 457,-90.5 401,-90.5"/>
<polygon fill="none" stroke="White" points="407,-96.5 407,-117.5 451,-117.5 451,-96.5 407,-96.5"/>
<text text-anchor="start" x="413.5" y="-103.3" font-family="Times New Roman,serif" font-size="14.00" fill="lightblue">98,99</text>
<polygon fill="none" stroke="White" points="404,-93.5 404,-120.5 454,-120.5 454,-93.5 404,-93.5"/>
<polygon fill="White" stroke="none" points="457,-90.5 457,-123.5 520,-123.5 520,-90.5 457,-90.5"/>
<polygon fill="none" stroke="blue" points="457,-90.5 457,-123.5 520,-123.5 520,-90.5 457,-90.5"/>
<polygon fill="none" stroke="White" points="463,-96.5 463,-117.5 514,-117.5 514,-96.5 463,-96.5"/>
<text text-anchor="start" x="469.5" y="-103.3" font-family="Times New Roman,serif" font-size="14.00" fill="lightblue">98,100</text>
<polygon fill="none" stroke="White" points="460,-93.5 460,-120.5 517,-120.5 517,-93.5 460,-93.5"/>
<polygon fill="White" stroke="none" points="520,-90.5 520,-123.5 550,-123.5 550,-90.5 520,-90.5"/>
<polygon fill="none" stroke="blue" points="520,-90.5 520,-123.5 550,-123.5 550,-90.5 520,-90.5"/>
<polygon fill="none" stroke="White" points="526,-96.5 526,-117.5 544,-117.5 544,-96.5 526,-96.5"/>
<text text-anchor="start" x="529" y="-103.3" font-family="Times New Roman,serif" font-size="14.00">...</text>
<polygon fill="none" stroke="White" points="523,-93.5 523,-120.5 547,-120.5 547,-93.5 523,-93.5"/>
<polygon fill="White" stroke="none" points="8,-57.5 8,-90.5 296,-90.5 296,-57.5 8,-57.5"/>
<polygon fill="none" stroke="blue" points="8,-57.5 8,-90.5 296,-90.5 296,-57.5 8,-57.5"/>
<polygon fill="none" stroke="White" points="14,-63.5 14,-84.5 290,-84.5 290,-63.5 14,-63.5"/>
<text text-anchor="start" x="146" y="-70.3" font-family="Times New Roman,serif" font-size="14.00">...</text>
<polygon fill="none" stroke="White" points="11,-60.5 11,-87.5 293,-87.5 293,-60.5 11,-60.5"/>
<polygon fill="White" stroke="none" points="296,-57.5 296,-90.5 345,-90.5 345,-57.5 296,-57.5"/>
<polygon fill="none" stroke="blue" points="296,-57.5 296,-90.5 345,-90.5 345,-57.5 296,-57.5"/>
<polygon fill="none" stroke="White" points="302,-63.5 302,-84.5 339,-84.5 339,-63.5 302,-63.5"/>
<text text-anchor="start" x="305" y="-70.3" font-family="Times New Roman,serif" font-size="14.00" fill="lightblue">99,97</text>
<polygon fill="none" stroke="White" points="299,-60.5 299,-87.5 342,-87.5 342,-60.5 299,-60.5"/>
<polygon fill="White" stroke="none" points="345,-57.5 345,-90.5 401,-90.5 401,-57.5 345,-57.5"/>
<polygon fill="none" stroke="blue" points="345,-57.5 345,-90.5 401,-90.5 401,-57.5 345,-57.5"/>
<polygon fill="none" stroke="White" points="351,-63.5 351,-84.5 395,-84.5 395,-63.5 351,-63.5"/>
<text text-anchor="start" x="357.5" y="-70.3" font-family="Times New Roman,serif" font-size="14.00" fill="lightblue">99,98</text>
<polygon fill="none" stroke="White" points="348,-60.5 348,-87.5 398,-87.5 398,-60.5 348,-60.5"/>
<polygon fill="Red" stroke="none" points="401,-57.5 401,-90.5 457,-90.5 457,-57.5 401,-57.5"/>
<polygon fill="none" stroke="blue" points="401,-57.5 401,-90.5 457,-90.5 457,-57.5 401,-57.5"/>
<polygon fill="none" stroke="Red" points="407,-63.5 407,-84.5 451,-84.5 451,-63.5 407,-63.5"/>
<text text-anchor="start" x="413.5" y="-70.3" font-family="Times New Roman,serif" font-size="14.00" fill="lightblue">99,99</text>
<polygon fill="none" stroke="Red" points="404,-60.5 404,-87.5 454,-87.5 454,-60.5 404,-60.5"/>
<polygon fill="White" stroke="none" points="457,-57.5 457,-90.5 520,-90.5 520,-57.5 457,-57.5"/>
<polygon fill="none" stroke="blue" points="457,-57.5 457,-90.5 520,-90.5 520,-57.5 457,-57.5"/>
<polygon fill="none" stroke="White" points="463,-63.5 463,-84.5 514,-84.5 514,-63.5 463,-63.5"/>
<text text-anchor="start" x="469.5" y="-70.3" font-family="Times New Roman,serif" font-size="14.00" fill="lightblue">99,100</text>
<polygon fill="none" stroke="White" points="460,-60.5 460,-87.5 517,-87.5 517,-60.5 460,-60.5"/>
<polygon fill="White" stroke="none" points="520,-57.5 520,-90.5 550,-90.5 550,-57.5 520,-57.5"/>
<polygon fill="none" stroke="blue" points="520,-57.5 520,-90.5 550,-90.5 550,-57.5 520,-57.5"/>
<polygon fill="none" stroke="White" points="526,-63.5 526,-84.5 544,-84.5 544,-63.5 526,-63.5"/>
<text text-anchor="start" x="529" y="-70.3" font-family="Times New Roman,serif" font-size="14.00">...</text>
<polygon fill="none" stroke="White" points="523,-60.5 523,-87.5 547,-87.5 547,-60.5 523,-60.5"/>
<polygon fill="White" stroke="none" points="8,-24.5 8,-57.5 345,-57.5 345,-24.5 8,-24.5"/>
<polygon fill="none" stroke="blue" points="8,-24.5 8,-57.5 345,-57.5 345,-24.5 8,-24.5"/>
<polygon fill="none" stroke="White" points="14,-30.5 14,-51.5 339,-51.5 339,-30.5 14,-30.5"/>
<text text-anchor="start" x="170.5" y="-37.3" font-family="Times New Roman,serif" font-size="14.00">...</text>
<polygon fill="none" stroke="White" points="11,-27.5 11,-54.5 342,-54.5 342,-27.5 11,-27.5"/>
<polygon fill="White" stroke="none" points="345,-24.5 345,-57.5 401,-57.5 401,-24.5 345,-24.5"/>
<polygon fill="none" stroke="blue" points="345,-24.5 345,-57.5 401,-57.5 401,-24.5 345,-24.5"/>
<polygon fill="none" stroke="White" points="351,-30.5 351,-51.5 395,-51.5 395,-30.5 351,-30.5"/>
<text text-anchor="start" x="354" y="-37.3" font-family="Times New Roman,serif" font-size="14.00" fill="lightblue">100,98</text>
<polygon fill="none" stroke="White" points="348,-27.5 348,-54.5 398,-54.5 398,-27.5 348,-27.5"/>
<polygon fill="White" stroke="none" points="401,-24.5 401,-57.5 457,-57.5 457,-24.5 401,-24.5"/>
<polygon fill="none" stroke="blue" points="401,-24.5 401,-57.5 457,-57.5 457,-24.5 401,-24.5"/>
<polygon fill="none" stroke="White" points="407,-30.5 407,-51.5 451,-51.5 451,-30.5 407,-30.5"/>
<text text-anchor="start" x="410" y="-37.3" font-family="Times New Roman,serif" font-size="14.00" fill="lightblue">100,99</text>
<polygon fill="none" stroke="White" points="404,-27.5 404,-54.5 454,-54.5 454,-27.5 404,-27.5"/>
<polygon fill="White" stroke="none" points="457,-24.5 457,-57.5 520,-57.5 520,-24.5 457,-24.5"/>
<polygon fill="none" stroke="blue" points="457,-24.5 457,-57.5 520,-57.5 520,-24.5 457,-24.5"/>
<polygon fill="none" stroke="White" points="463,-30.5 463,-51.5 514,-51.5 514,-30.5 463,-30.5"/>
<text text-anchor="start" x="466" y="-37.3" font-family="Times New Roman,serif" font-size="14.00" fill="lightblue">100,100</text>
<polygon fill="none" stroke="White" points="460,-27.5 460,-54.5 517,-54.5 517,-27.5 460,-27.5"/>
<polygon fill="White" stroke="none" points="520,-24.5 520,-57.5 550,-57.5 550,-24.5 520,-24.5"/>
<polygon fill="none" stroke="blue" points="520,-24.5 520,-57.5 550,-57.5 550,-24.5 520,-24.5"/>
<polygon fill="none" stroke="White" points="526,-30.5 526,-51.5 544,-51.5 544,-30.5 526,-30.5"/>
<text text-anchor="start" x="529" y="-37.3" font-family="Times New Roman,serif" font-size="14.00">...</text>
<polygon fill="none" stroke="White" points="523,-27.5 523,-54.5 547,-54.5 547,-27.5 523,-27.5"/>
<polygon fill="none" stroke="blue" points="8,-3.5 8,-24.5 550,-24.5 550,-3.5 8,-3.5"/>
<text text-anchor="start" x="273" y="-10.3" font-family="Times New Roman,serif" font-size="14.00">...</text>
</g>
</g>
</svg>
